<svg xmlns="http://www.w3.org/2000/svg" width="70.879" height="56.09" viewBox="0 0 70.879 56.09"><defs><style>.a{fill:#0568b4;}.b{fill:#86d61d;stroke:#86d61d;}</style></defs><g transform="translate(-1331.288 -4084.41)"><g transform="translate(1331.288 4084.41)"><path class="a" d="M100.421,26.778a12.956,12.956,0,0,0,9.467-3.923,12.956,12.956,0,0,0,3.922-9.467,12.957,12.957,0,0,0-3.923-9.467,13.386,13.386,0,0,0-18.933,0,12.956,12.956,0,0,0-3.923,9.466,12.956,12.956,0,0,0,3.923,9.467A12.96,12.96,0,0,0,100.421,26.778ZM93.258,6.226a10.128,10.128,0,0,1,14.326,0,9.68,9.68,0,0,1,2.968,7.163,9.679,9.679,0,0,1-2.968,7.163,10.127,10.127,0,0,1-14.326,0,9.678,9.678,0,0,1-2.969-7.163,9.679,9.679,0,0,1,2.969-7.163Zm0,0" transform="translate(-77.583 0)"/><path class="a" d="M46.266,263.21a33.071,33.071,0,0,0-.45-3.513,27.673,27.673,0,0,0-.864-3.532,17.445,17.445,0,0,0-1.452-3.294,12.416,12.416,0,0,0-2.189-2.853,9.652,9.652,0,0,0-3.145-1.976,10.868,10.868,0,0,0-4.015-.727,4.075,4.075,0,0,0-2.176.923c-.652.425-1.415.917-2.267,1.461a12.99,12.99,0,0,1-2.933,1.292,11.39,11.39,0,0,1-7.175,0,12.95,12.95,0,0,1-2.931-1.292c-.844-.539-1.607-1.031-2.269-1.462a4.071,4.071,0,0,0-2.175-.923,10.855,10.855,0,0,0-4.014.727,9.644,9.644,0,0,0-3.145,1.976,12.419,12.419,0,0,0-2.188,2.853,17.478,17.478,0,0,0-1.452,3.294A27.74,27.74,0,0,0,.561,259.7a32.846,32.846,0,0,0-.45,3.514C.037,264.273,0,265.378,0,266.494a9.231,9.231,0,0,0,2.741,6.984,9.868,9.868,0,0,0,7.064,2.576H36.573a9.869,9.869,0,0,0,7.064-2.576,9.227,9.227,0,0,0,2.742-6.984c0-1.12-.038-2.225-.112-3.284Zm-4.876,7.907a6.644,6.644,0,0,1-4.818,1.679H9.806a6.645,6.645,0,0,1-4.818-1.679,6.028,6.028,0,0,1-1.73-4.624c0-1.042.034-2.07.1-3.057a29.625,29.625,0,0,1,.407-3.163,24.467,24.467,0,0,1,.76-3.113,14.229,14.229,0,0,1,1.182-2.678,9.205,9.205,0,0,1,1.609-2.108,6.4,6.4,0,0,1,2.092-1.3,7.5,7.5,0,0,1,2.565-.495c.114.061.317.176.646.391.67.436,1.442.934,2.295,1.479a16.14,16.14,0,0,0,3.682,1.645,14.645,14.645,0,0,0,9.179,0,16.158,16.158,0,0,0,3.684-1.646c.873-.558,1.624-1.042,2.293-1.478.329-.214.532-.33.646-.391a7.5,7.5,0,0,1,2.566.495,6.413,6.413,0,0,1,2.092,1.3,9.18,9.18,0,0,1,1.609,2.109,14.182,14.182,0,0,1,1.182,2.677,24.41,24.41,0,0,1,.76,3.113,29.875,29.875,0,0,1,.407,3.164h0c.069.984.1,2.012.1,3.056a6.027,6.027,0,0,1-1.73,4.623Zm0,0" transform="translate(0 -220.464)"/></g><g transform="translate(1375.288 4108.382)"><path class="b" d="M94.647,15.231A7.369,7.369,0,0,0,100.032,13a7.369,7.369,0,0,0,2.231-5.384,7.369,7.369,0,0,0-2.231-5.384,7.614,7.614,0,0,0-10.769,0,7.369,7.369,0,0,0-2.231,5.384A7.369,7.369,0,0,0,89.263,13,7.371,7.371,0,0,0,94.647,15.231ZM90.573,3.541a5.76,5.76,0,0,1,8.148,0,5.506,5.506,0,0,1,1.688,4.074,5.505,5.505,0,0,1-1.688,4.074,5.76,5.76,0,0,1-8.148,0,5.5,5.5,0,0,1-1.689-4.074,5.5,5.5,0,0,1,1.689-4.074Zm0,0" transform="translate(-81.657 0)"/><path class="b" d="M26.315,256.356a18.81,18.81,0,0,0-.256-2,15.739,15.739,0,0,0-.491-2.009,9.922,9.922,0,0,0-.826-1.873,7.062,7.062,0,0,0-1.245-1.623,5.49,5.49,0,0,0-1.789-1.124,6.182,6.182,0,0,0-2.283-.413,2.318,2.318,0,0,0-1.238.525c-.371.242-.8.522-1.289.831a7.388,7.388,0,0,1-1.668.735,6.478,6.478,0,0,1-4.081,0,7.365,7.365,0,0,1-1.667-.735c-.48-.307-.914-.586-1.291-.832a2.315,2.315,0,0,0-1.237-.525,6.174,6.174,0,0,0-2.283.414,5.485,5.485,0,0,0-1.789,1.124,7.063,7.063,0,0,0-1.245,1.622A9.941,9.941,0,0,0,.81,252.35a15.777,15.777,0,0,0-.491,2.008,18.68,18.68,0,0,0-.256,2c-.042.6-.063,1.232-.063,1.867A5.25,5.25,0,0,0,1.559,262.2a5.613,5.613,0,0,0,4.018,1.465H20.8a5.613,5.613,0,0,0,4.018-1.465,5.248,5.248,0,0,0,1.56-3.972c0-.637-.022-1.265-.064-1.868Zm-2.773,4.5a3.779,3.779,0,0,1-2.741.955H5.577a3.779,3.779,0,0,1-2.741-.955,3.428,3.428,0,0,1-.984-2.63c0-.592.02-1.177.059-1.739a16.85,16.85,0,0,1,.232-1.8,13.917,13.917,0,0,1,.432-1.771,8.093,8.093,0,0,1,.672-1.523,5.235,5.235,0,0,1,.915-1.2,3.642,3.642,0,0,1,1.19-.74,4.264,4.264,0,0,1,1.459-.281c.065.034.18.1.368.222.381.248.82.531,1.305.841a9.18,9.18,0,0,0,2.094.936,8.329,8.329,0,0,0,5.221,0,9.19,9.19,0,0,0,2.1-.936c.5-.317.923-.592,1.3-.841.187-.122.3-.188.368-.222a4.267,4.267,0,0,1,1.46.282,3.648,3.648,0,0,1,1.19.74,5.222,5.222,0,0,1,.915,1.2,8.066,8.066,0,0,1,.672,1.523,13.883,13.883,0,0,1,.432,1.771,16.992,16.992,0,0,1,.232,1.8h0c.039.559.059,1.144.059,1.738a3.428,3.428,0,0,1-.984,2.63Zm0,0" transform="translate(0 -232.044)"/></g></g></svg>