<svg xmlns="http://www.w3.org/2000/svg" width="55.538" height="55.672" viewBox="0 0 55.538 55.672"><defs><style>.a{fill:#0568b4;}.b{fill:#86d61d;}</style></defs><g transform="translate(-0.615)"><path class="a" d="M44.894,27.745V0H7.814A7.152,7.152,0,0,0,.67,7.144S.615,47.733.615,48.038a7.644,7.644,0,0,0,7.647,7.634H42.045a14.109,14.109,0,0,0,2.849-27.927Zm-3.256-.283A14.128,14.128,0,0,0,27.986,40.391H13.744V3.256H41.637V27.462ZM7.814,3.256h2.674V40.391H8.262a7.6,7.6,0,0,0-4.336,1.353V7.144A3.892,3.892,0,0,1,7.814,3.256Zm.448,49.173a4.391,4.391,0,0,1,0-8.782H28.091a13.992,13.992,0,0,0,.712,2.784H8.921v3.256h21.6a14.226,14.226,0,0,0,2.539,2.741Zm33.783-.013A10.852,10.852,0,1,1,52.9,41.564,10.864,10.864,0,0,1,42.045,52.416Z" transform="translate(0)"/><path class="b" d="M7.571,7.039V0H4.315V7.039L2.3,5.026,0,7.328l5.943,5.943,5.943-5.943-2.3-2.3Z" transform="translate(50.917 42.581) rotate(137)"/><path class="a" d="M201.236,88.171h10.9v3.256h-10.9Z" transform="translate(-178.807 -78.584)"/><path class="a" d="M167.382,153.181h18.259v3.256H167.382Z" transform="translate(-148.634 -136.525)"/></g></svg>