<svg xmlns="http://www.w3.org/2000/svg" width="44.844" height="56" viewBox="0 0 44.844 56"><defs><style>.a{fill:#0568b4;}.b{fill:#86d61d;}</style></defs><g transform="translate(-50.998)"><path class="a" d="M90.012,5.83A19.852,19.852,0,0,0,56.139,19.852v4.106l-4.948,9.287a1.641,1.641,0,0,0,1.448,2.412h3.5V39.7A10.293,10.293,0,0,0,66.42,49.985h6.125v4.375a1.641,1.641,0,1,0,3.281,0V48.344A1.641,1.641,0,0,0,74.186,46.7H66.42a7.008,7.008,0,0,1-7-7V34.016a1.641,1.641,0,0,0-1.641-1.641H55.372l3.856-7.237a1.641,1.641,0,0,0,.193-.771V19.852a16.57,16.57,0,0,1,33.141,0V54.359a1.641,1.641,0,1,0,3.281,0V19.852A19.711,19.711,0,0,0,90.012,5.83Z" transform="translate(0 0)"/><path class="b" d="M180.9,65.4h0a7.138,7.138,0,0,0-13.822,0h0a6.07,6.07,0,0,0,0,12.141H180.9a6.07,6.07,0,1,0,0-12.141Zm0,8.859H167.071a2.789,2.789,0,1,1,0-5.578h1.424a1.641,1.641,0,0,0,1.64-1.6,3.853,3.853,0,0,1,7.7,0,1.641,1.641,0,0,0,1.64,1.6H180.9a2.789,2.789,0,1,1,0,5.578Z" transform="translate(-97.971 -53.477)"/><path class="b" d="M204.726,251.641v2.3a1.641,1.641,0,0,0,3.281,0v-2.3a1.641,1.641,0,1,0-3.281,0Z" transform="translate(-136.914 -222.656)"/><path class="b" d="M266.368,250a1.641,1.641,0,0,0-1.641,1.641v2.3a1.641,1.641,0,0,0,3.281,0v-2.3A1.641,1.641,0,0,0,266.368,250Z" transform="translate(-190.352 -222.656)"/><path class="b" d="M326.368,250a1.641,1.641,0,0,0-1.641,1.641v2.3a1.641,1.641,0,0,0,3.281,0v-2.3A1.641,1.641,0,0,0,326.368,250Z" transform="translate(-243.79 -222.656)"/></g></svg>