<svg xmlns="http://www.w3.org/2000/svg" width="78" height="50.426" viewBox="0 0 78 50.426"><defs><style>.a{fill:#0568b4;}.b{fill:#fff;stroke:#0568b4;stroke-width:3px;}.c{fill:#86d61d;}.d{stroke:none;}.e{fill:none;}</style></defs><g transform="translate(-511 -4089.574)"><path class="a" d="M55.341,6.68H40.19V5.01A5.016,5.016,0,0,0,35.18,0H21.821a5.016,5.016,0,0,0-5.01,5.01V6.68H1.67A1.674,1.674,0,0,0,0,8.35V45.088A5.016,5.016,0,0,0,5.01,50.1H51.99A5.016,5.016,0,0,0,57,45.088V8.378a1.621,1.621,0,0,0-1.659-1.7ZM20.151,5.01a1.672,1.672,0,0,1,1.67-1.67H35.18a1.672,1.672,0,0,1,1.67,1.67V6.68h-16.7Zm32.863,5.01L47.827,25.577a1.667,1.667,0,0,1-1.584,1.142H36.85v-1.67a1.67,1.67,0,0,0-1.67-1.67H21.821a1.67,1.67,0,0,0-1.67,1.67v1.67H10.757a1.667,1.667,0,0,1-1.584-1.142L3.987,10.02Zm-19.5,16.7v3.34H23.49v-3.34ZM53.66,45.088a1.672,1.672,0,0,1-1.67,1.67H5.01a1.672,1.672,0,0,1-1.67-1.67V18.64L6,26.633a5,5,0,0,0,4.752,3.426h9.394v1.67a1.67,1.67,0,0,0,1.67,1.67H35.18a1.67,1.67,0,0,0,1.67-1.67v-1.67h9.394A5,5,0,0,0,51,26.633L53.66,18.64Zm0,0" transform="translate(511 4089.574)"/><g class="b" transform="translate(561 4112)"><circle class="d" cx="14" cy="14" r="14"/><circle class="e" cx="14" cy="14" r="12.5"/></g><path class="c" d="M.686,8.81a.909.909,0,0,0,.1,1.282l4.488,3.847a.9.9,0,0,0,.59.219c.027,0,.054,0,.081,0a.906.906,0,0,0,.623-.329l7.676-9.342A.91.91,0,0,0,14.117,3.2L12.712,2.048a.911.911,0,0,0-1.28.125L5.525,9.364,3.151,7.33a.912.912,0,0,0-1.282.1Z" transform="translate(567.534 4118.158)"/></g></svg>