<svg xmlns="http://www.w3.org/2000/svg" width="50.292" height="56.117" viewBox="0 0 50.292 56.117"><defs><style>.a{fill:#0568b4;}.b{fill:#86d61d;}</style></defs><g transform="translate(-26.57)"><g transform="translate(26.57)"><path class="a" d="M133.421,202.192A2.192,2.192,0,0,0,131.229,200H108.651a2.192,2.192,0,1,0,0,4.384h22.578A2.192,2.192,0,0,0,133.421,202.192Z" transform="translate(-97.703 -178.079)"/><path class="a" d="M108.651,280a2.192,2.192,0,1,0,0,4.384h13.713a2.192,2.192,0,1,0,0-4.384Z" transform="translate(-97.703 -249.311)"/><path class="a" d="M42.669,51.733H35.338a4.389,4.389,0,0,1-4.384-4.384V8.768a4.389,4.389,0,0,1,4.384-4.384h26.95a4.389,4.389,0,0,1,4.384,4.384V22.249a2.192,2.192,0,1,0,4.384,0V8.768A8.778,8.778,0,0,0,62.288,0H35.338A8.778,8.778,0,0,0,26.57,8.768v38.58a8.778,8.778,0,0,0,8.768,8.768h7.331a2.192,2.192,0,0,0,0-4.384Z" transform="translate(-26.57)"/><path class="b" d="M268.055,273.947a6.583,6.583,0,0,0-9.3,0l-12.035,12.008a2.193,2.193,0,0,0-.549.915l-2.621,8.628a2.192,2.192,0,0,0,2.683,2.75l8.848-2.451a2.192,2.192,0,0,0,.963-.561l12.01-11.987A6.584,6.584,0,0,0,268.055,273.947Zm-14.7,17.777-4.451,1.233,1.3-4.289,8.12-8.1,3.1,3.1Zm11.6-11.578-.425.424-3.1-3.1.423-.422a2.192,2.192,0,0,1,3.1,3.1Z" transform="translate(-219.686 -242.209)"/><path class="a" d="M131.229,120H108.651a2.192,2.192,0,1,0,0,4.384h22.578a2.192,2.192,0,0,0,0-4.384Z" transform="translate(-97.703 -106.848)"/></g></g></svg>